<?xml version="1.0" standalone="no"?>
<!DOCTYPE svg PUBLIC "-//W3C//DTD SVG 20010904//EN"
 "http://www.w3.org/TR/2001/REC-SVG-20010904/DTD/svg10.dtd">
<svg version="1.0" xmlns="http://www.w3.org/2000/svg"
 width="558.000000pt" height="558.000000pt" viewBox="0 0 558.000000 558.000000"
 preserveAspectRatio="xMidYMid meet">
<metadata>
Created by potrace 1.11, written by Peter Selinger 2001-2013
</metadata>
<g transform="translate(0.000000,558.000000) scale(0.100000,-0.100000)"
fill="#000000" stroke="none">
<path d="M2619 5436 c-2 -2 -38 -6 -79 -10 -41 -3 -88 -8 -105 -11 -37 -6 -78
-13 -130 -21 -58 -9 -312 -73 -349 -89 -17 -7 -80 -32 -141 -55 -495 -192
-938 -552 -1236 -1005 -36 -55 -76 -120 -89 -145 -14 -25 -29 -52 -35 -60 -17
-23 -125 -257 -129 -280 -1 -3 -11 -30 -23 -60 -12 -30 -33 -95 -48 -145 -32
-110 -35 -118 -40 -144 -3 -12 -7 -31 -11 -43 -12 -50 -33 -172 -40 -228 -2
-25 -9 -76 -13 -115 -9 -71 -7 -483 2 -521 3 -12 8 -45 12 -75 14 -120 57
-312 103 -454 106 -331 293 -665 517 -925 39 -45 218 -225 270 -271 230 -204
563 -396 876 -505 174 -61 389 -107 604 -131 138 -16 509 -8 612 11 11 3 44 7
74 11 112 14 388 87 509 135 109 43 137 55 275 125 632 319 1127 911 1331
1590 33 111 70 268 78 332 3 26 8 59 11 73 27 133 26 578 0 733 -5 28 -26 146
-30 172 -10 57 -60 244 -75 280 -4 11 -20 56 -35 100 -37 108 -182 401 -247
500 -55 84 -148 216 -158 225 -3 3 -29 34 -59 70 -108 130 -277 290 -426 402
-232 176 -511 321 -778 407 -99 32 -269 76 -327 85 -19 3 -44 7 -55 10 -11 2
-47 7 -80 11 -33 4 -71 9 -85 12 -30 5 -446 13 -451 9z"/>
</g>
</svg>
