<?xml version="1.0" encoding="iso-8859-1"?>
<!-- Generator: Adobe Illustrator 24.2.1, SVG Export Plug-In . SVG Version: 6.00 Build 0)  -->
<svg version="1.1" id="&#x5716;&#x5C64;_1" xmlns="http://www.w3.org/2000/svg" xmlns:xlink="http://www.w3.org/1999/xlink" x="0px"
	 y="0px" viewBox="0 0 1080 1080" style="enable-background:new 0 0 1080 1080;" xml:space="preserve">
<g id="bg">
	<g id="Background">
		<circle style="fill:#F3FAFF;" cx="552" cy="677" r="334"/>
	</g>
</g>
<g id="small-leave">
	<g id="_x23_1_Leave">
		<g>
			<g>
				<path style="fill:#FFBE55;" d="M923.7,908.5c-10.8-20.2-22-42.7-16.7-65c1.3-5.4,3.5-11.2,1.2-16.3c-3.1-6.8-12.8-8.3-16.7-14.7
					c-4.3-7,0.1-16.4-2.3-24.3c-2.4-8.1-11.1-12.4-19.2-14.5c-8.1-2-16.9-2.8-23.9-7.6c-13.3-9.1-14.1-28.2-13.3-44.3
					s0.6-35.1-12.3-44.8c21.8,1.6,44.1,3.3,63.9,12.4c19.8,9.1,37,27.3,38.4,49.1c0.7,10.9-2.2,23,3.9,32.1
					c6.6,9.8,21.5,12.2,26.5,22.9c5.7,12.3-5.4,25.4-8.9,38.5c-3.2,12.3,0.5,25.3,0.9,38s-4.5,27.8-16.8,31.2L923.7,908.5z"/>
			</g>
			<path style="fill:none;stroke:#FFFFFF;stroke-width:0.75;stroke-linecap:round;stroke-miterlimit:10;" d="M929,879.7
				c-7-61.7-34-189.2-107.7-202.3"/>
		</g>
	</g>
</g>
<g id="large-leave">
	<g id="_x23_2_Leave">
		<g>
			<g>
				<path style="fill:#FFBE55;" d="M966,912.9c7.1-18.1,14.3-38.2,7.6-56.4c-1.6-4.4-4.1-9.1-2.6-13.6c2-6.1,10-8.2,12.6-14
					c3-6.4-1.7-13.8-0.5-20.7c1.2-7,8.1-11.6,14.8-14.1s14-4.1,19.4-8.7c10.3-9,9.1-25.1,6.8-38.7c-2.3-13.5-4-29.5,5.9-39
					c-18.2,3.5-36.8,7.1-52.6,16.7S949,751,949.9,769.5c0.5,9.3,4.1,19.2-0.1,27.4c-4.6,8.9-16.9,12.4-20,21.9
					c-3.6,10.9,7.1,20.9,11.3,31.6c4,10.1,2.1,21.4,3,32.1c0.9,10.8,6.5,23,17.2,24.6L966,912.9z"/>
			</g>
			<g style="opacity:0.31;">
				<path style="fill:#FFFFFF;" d="M966,912.9c7.1-18.1,14.3-38.2,7.6-56.4c-1.6-4.4-4.1-9.1-2.6-13.6c2-6.1,10-8.2,12.6-14
					c3-6.4-1.7-13.8-0.5-20.7c1.2-7,8.1-11.6,14.8-14.1s14-4.1,19.4-8.7c10.3-9,9.1-25.1,6.8-38.7c-2.3-13.5-4-29.5,5.9-39
					c-18.2,3.5-36.8,7.1-52.6,16.7S949,751,949.9,769.5c0.5,9.3,4.1,19.2-0.1,27.4c-4.6,8.9-16.9,12.4-20,21.9
					c-3.6,10.9,7.1,20.9,11.3,31.6c4,10.1,2.1,21.4,3,32.1c0.9,10.8,6.5,23,17.2,24.6L966,912.9z"/>
			</g>
			<path style="fill:none;stroke:#FFFFFF;stroke-width:0.75;stroke-linecap:round;stroke-miterlimit:10;" d="M958.7,889.2
				c-0.2-52.6,10-162.7,70.7-181.1"/>
		</g>
	</g>
</g>
<g id="vase">
	<g id="Vase">
		<path style="fill:#CCE9FF;" d="M992,1027h-95c-6.6,0-12-5.4-12-12l-8-137c0-6.6,5.4-12,12-12h111c6.6,0,12,5.4,12,12l-8,137
			C1004,1021.6,998.6,1027,992,1027z"/>
	</g>
</g>
<g id="small-pen">
	<g id="_x23_1_Pen">
		<g>
			
				<rect x="151.002" y="585.703" transform="matrix(0.9887 -0.1499 0.1499 0.9887 -106.5767 35.4704)" style="fill:#FFBE55;" width="62" height="278"/>
			
				<rect x="181.802" y="583.404" transform="matrix(0.9887 -0.1499 0.1499 0.9887 -106.0592 37.7379)" style="fill:#FFBE55;" width="31" height="278"/>
			<polygon style="fill:#FFEBC2;" points="191.9,582.9 130.6,592.2 145,555.3 153.2,534.5 167.2,552 			"/>
			<polygon style="fill:#0E538C;" points="167.2,552 145,555.3 153.2,534.5 			"/>
		</g>
	</g>
</g>
<g id="large-pen">
	<g id="_x23_2_Pen">
		<g>
			
				<rect x="120.595" y="629.9" transform="matrix(0.0892 -0.996 0.996 0.0892 -421.8297 860.5027)" style="fill:#FFBE55;" width="277.992" height="61.998"/>
			
				<rect x="136.087" y="646.804" transform="matrix(0.0892 -0.996 0.996 0.0892 -409.1176 877.212)" style="fill:#FFBE55;" width="277.992" height="31"/>
			<polygon style="fill:#FFEBC2;" points="302.9,525.5 241.1,520 263.9,487.6 276.8,469.3 286.2,489.6 			"/>
			<polygon style="fill:#0E538C;" points="286.2,489.6 263.9,487.6 276.8,469.3 			"/>
		</g>
	</g>
</g>
<g id="pen-holder">
	<g id="Pen_holder">
		<g>
			<polygon style="fill:#CCE9FF;" points="343.5,1028 99.9,1028 68,651 363,651 			"/>
		</g>
	</g>
</g>
<g id="static-bg">
	<g id="Layer_1">
		<path style="fill:#F7F7F7;" d="M1035,1065H53c-6.6,0-12-5.4-12-12v-47c0-6.6,5.4-12,12-12h982c6.6,0,12,5.4,12,12v47
			C1047,1059.6,1041.6,1065,1035,1065z"/>
		<g>
			<polygon style="opacity:0.5;fill:#CCE9FF;enable-background:new    ;" points="215.5,1028 343.5,1028 363,651 215.5,651 			"/>
		</g>
		<rect x="269" y="921.6" style="fill:#FFEBC2;" width="619" height="85.1"/>
		<path style="fill:#FFBE55;" d="M271.6,921.6v85.1H921v6.4c0,7.9-6.9,14.3-15.4,14.3H274.4c-20.1,0-36.4-15-36.4-33.6v-56.9
			c0-18.6,16.3-33.6,36.4-33.6h631.2c8.5,0,15.4,6.4,15.4,14.3v4.1H271.6V921.6z"/>
		<rect x="349" y="818" style="fill:#CCE9FF;" width="503" height="74"/>
		<path style="fill:#2A94F4;" d="M349,818v74h522v5.6c0,6.9-5.6,12.4-12.4,12.4H351.2c-16.1,0-29.2-13.1-29.2-29.2v-49.5
			c0-16.1,13.1-29.2,29.2-29.2h507.4c6.8,0,12.4,5.6,12.4,12.4v3.6L349,818L349,818z"/>
		<g>
			<rect x="349" y="851" style="fill:#BFE4FF;" width="503" height="41"/>
		</g>
		<polygon style="fill:#FFBE55;" points="405,921 386,910 367,921 367,851 405,851 		"/>
		<polygon style="opacity:0.14;fill:#0C0C0C;enable-background:new    ;" points="405,921 386,910 367,921 367,851 405,851 		"/>
	</g>
</g>
<g id="head">
	<g id="Head">
		<g>
			<g>
				<path style="fill:#0E538C;" d="M566.4,566.1c-6.9-9.1-7.5-21.6-1-31.1c5.2-7.6,8.7-17,8.3-23.9c-0.8-12.4-8.5-23.8-19-30.6
					c-13.8-9-32.2-10.3-47.1-3.3s-25.7,22-27.6,38.3c-1.4,11.7,1.3,24.5-4.7,34.7c-4.4,7.3-12.5,11.6-20.5,14.5
					c-8.1,2.8-16.6,4.7-24,9s-13.7,11.7-13.6,20.3c0.1,6.5,3.8,12.5,4.2,18.9c0.6,9.4-6,17.7-13,23.9c-7.1,6.2-15.2,11.6-20,19.7
					c-7.9,13.4-4.2,31.5,5.8,43.5s25,18.7,40,22.6c41,10.8,84.2,3.8,126.5,3.1c13.1-0.2,26.5,0.2,39.2-3.1s25.1-10.9,30.4-22.9
					c5.4-12,2.7-26.6-4.5-37.5s-18.5-18.8-30.4-24.4c-8.6-4.1-17.8-7.3-24.8-13.7s-11.1-17.3-6.4-25.6c1.8-3.2,4.8-5.7,6.5-8.9
					c3.4-6.2,2-14.1-1.8-20.1C568.2,568.5,567.4,567.4,566.4,566.1z"/>
			</g>
			<path style="fill:#FFE3CA;" d="M554.8,505.9c1.5,24.5-9.2,41.3-24.5,42.1s-25.3-21.4-20.7-42.1c10.7-18.4,25.3-19.9,25.3-19.9
				h9.2L554.8,505.9z"/>
			<g>
				<path style="fill:#0E538C;" d="M544.6,491.3c-2.8,8.6-9,16-17,20.2s-17.6,5.2-26.3,2.6l21.8-31.1h18.7l17.9,14.2l-2.7,16.3
					C550,508.2,544.6,491.3,544.6,491.3z"/>
			</g>
			<path style="fill:#FFE3CA;" d="M525.7,545.1c-3.2,12.4-2.2,25.4-2.2,27.4c-3,4-17,3-19-11c3-18,9-38,9-38l5,11L525.7,545.1z"/>
		</g>
	</g>
</g>
<g id="right-leg">
	<g id="_x23_1_Leg">
		<g>
			<path style="fill:#0E538C;" d="M466.3,733.4C455,764,463,807,501,809s50,0,50,0l74,150h17l-58-168l-70.5-39L466.3,733.4z"/>
			<path style="fill:#1A87D8;" d="M639.6,959c9.9,2.2,23.3,13.1,29.7,18.7c1.3,1.1,0.5,3.3-1.3,3.3c-10.3-0.2-33.6-1.3-39-5.9
				c-7-6-5-16-5-16L639.6,959L639.6,959z"/>
		</g>
	</g>
</g>
<g id="left-leg">
	<g id="_x23_2_Leg">
		<g>
			<path style="fill:#0B4870;" d="M576,746l62,44l76,157h-14l-85-139c0,0-29,1-39-8s-67.5-48-67.5-48L576,746z"/>
			<path style="fill:#1A87D8;" d="M713.8,946.6c8.8,2.4,20.4,12.6,26.2,18.1c1.3,1.2,0.3,3.3-1.4,3.2c-9.7-0.7-30.5-2.6-35.2-7.1
				c-6.2-5.8-3.9-14.9-3.9-14.9L713.8,946.6z"/>
		</g>
	</g>
</g>
<g id="left-hand">
	<g id="_x23_1_Hand">
		<path style="fill:#4EA3FB;" d="M524,559c10,13,34,49,43,89s34,98,34,98h-29l-28-95l-26-89L524,559z"/>
	</g>
</g>
<g id="body">
	<g id="Body">
		<g>
			<path style="fill:#2A94F4;" d="M506.5,550.9C494,555,452,574,450,578c3,11,18,174,18,174h68c0,0-9-90-4-96s21-27,19-30
				s-27.4-67.5-27.4-67.5L506.5,550.9z"/>
		</g>
	</g>
</g>
<g id="right-hand">
	<g id="_x23_2_Hand">
		<path style="fill:#4EA3FB;" d="M450,578c-9.8,7.5-51,75-38,111s55.5,57.2,55.5,57.2v-19.8c0,0-34.5-27.4-32.5-47.4s26-61,26-61
			L450,578z"/>
	</g>
</g>
<g id="laptop">
	<g id="Laptop">
		<g>
			<g>
				<path style="fill:#FFBE55;" d="M610.5,764.3l-147.2-1.6c-4.6,0-8.4-3.9-8.3-8.5l-3-94.2c0-4.6,3.9-8.4,8.5-8.3l153.2,1.7
					c4.6,0,8.4,3.9,8.3,8.5l-3,94.2C618.9,760.6,615.1,764.4,610.5,764.3z"/>
			</g>
			<circle style="fill:#FFFFFF;" cx="537" cy="708" r="15"/>
		</g>
	</g>
</g>
<g id="first-sprinke">
	<g id="_x23_1_Sprinkle">
		<path style="fill:#FFBE55;" d="M541.2,416.2c-14.3-1.6-25.4-13.8-25.4-28.5c0-0.4,0-0.8,0.1-1.2c-0.1,0-0.2,0-0.3,0s-0.2,0-0.3,0
			c0,0.4,0.1,0.8,0.1,1.2c0,14.8-11.1,26.9-25.4,28.5c14.1,1.6,25,13.4,25.4,27.7c0.1,0,0.2,0,0.3,0s0.2,0,0.3,0
			C516.2,429.6,527.2,417.8,541.2,416.2z"/>
	</g>
</g>
<g id="last-sprinkle">
	<g id="_x23_2_Sprinkle">
		<path style="fill:#FFBE55;" d="M586.3,261.1c-9.5-1.1-16.8-9.1-16.8-18.9c0-0.3,0-0.5,0-0.8c-0.1,0-0.1,0-0.2,0s-0.1,0-0.2,0
			c0,0.3,0,0.5,0,0.8c0,9.8-7.4,17.8-16.8,18.9c9.3,1.1,16.5,8.8,16.8,18.3c0.1,0,0.1,0,0.2,0s0.1,0,0.2,0
			C569.8,269.9,577,262.2,586.3,261.1z"/>
	</g>
</g>
<g id="second-sprinkle">
	<g id="_x23_3_Sprinkle">
		<path style="fill:#FFBE55;" d="M795.8,345.4c-4.9-0.7-8.7-5.6-8.7-11.6c0-0.2,0-0.3,0-0.5H787h-0.1c0,0.2,0,0.3,0,0.5
			c0,6-3.8,11-8.7,11.6c4.8,0.7,8.6,5.4,8.7,11.3h0.1h0.1C787.2,350.9,791,346.1,795.8,345.4z"/>
	</g>
</g>
<g id="third-sprinkle">
	<g id="_x23_4_Sprinkle">
		<path style="fill:#FFBE55;" d="M770.5,527.2c-11-1.3-19.5-10.6-19.5-21.9c0-0.3,0-0.6,0-0.9c-0.1,0-0.1,0-0.2,0
			c-0.1,0-0.1,0-0.2,0c0,0.3,0,0.6,0,0.9c0,11.3-8.5,20.7-19.5,21.9c10.8,1.2,19.2,10.3,19.5,21.3c0.1,0,0.1,0,0.2,0
			c0.1,0,0.1,0,0.2,0C751.3,537.4,759.7,528.4,770.5,527.2z"/>
	</g>
</g>
<g id="light-bulb">
	<g id="Light_bulb">
		<g>
			<path style="fill:#FFBE55;" d="M699.6,506.5c0,1.9-0.7,3.6-1.9,5c1.2,1.3,1.9,3.1,1.9,5v6.2c0,1.3-0.4,2.6-1,3.7
				c0.6,1.1,1,2.4,1,3.7v6.2c0,4.1-3.3,7.4-7.4,7.4h-64.4c-4.1,0-7.4-3.3-7.4-7.4V530c0-1.3,0.4-2.6,1-3.7c-0.6-1.1-1-2.4-1-3.7
				v-6.2c0-1.9,0.7-3.6,1.9-5c-1.2-1.3-1.9-3.1-1.9-5v-6.2c0-4.1,3.3-7.4,7.4-7.4h64.4c4.1,0,7.4,3.3,7.4,7.4V506.5z"/>
			<path style="fill:#FFBE55;" d="M751,366.3c0,36.1-21,67.2-51.4,82v33.6c0,2.5-2.1,4.6-4.6,4.6h-70c-2.5,0-4.6-2.1-4.6-4.6v-33.6
				c-30.4-14.7-51.4-45.9-51.4-82c0-50.3,40.7-91,91-91S751,316.1,751,366.3z"/>
			
				<line style="opacity:0.23;fill:none;stroke:#7F7F7F;stroke-width:2;stroke-linecap:round;stroke-miterlimit:10;enable-background:new    ;" x1="691" y1="512" x2="630" y2="512"/>
			
				<line style="opacity:0.23;fill:none;stroke:#7F7F7F;stroke-width:2;stroke-linecap:round;stroke-miterlimit:10;enable-background:new    ;" x1="691" y1="526" x2="630" y2="526"/>
			<g>
				<path style="fill:#FFFFFF;" d="M675.6,377.5c-1.1-1-2.7-1.5-4.4-1.3c-2.1,0.2-4.1,1.4-5.4,3.1c-1.1,1.5-1.7,3.3-2,5
					c-0.9-0.5-1.9-1-2.8-1.6l-0.3-0.2h-1.3l-0.3,0.2c-1,0.6-1.9,1.1-2.8,1.6c-0.3-1.7-0.9-3.5-2-5c-1.2-1.7-3.3-2.9-5.4-3.1
					c-1.7-0.2-3.2,0.3-4.4,1.3c-1.5,1.4-2,3.4-1.5,5.5c0.8,2.8,3.1,5.1,5.8,5.6c1.7,0.3,3.3,0.2,5-0.2l0,0
					c2.5,32.5,3.5,65.4,2.8,97.9h3c0.7-32.6-0.3-65.6-2.8-98.1c0-0.3,0-0.6-0.1-0.9c1.2-0.5,2.3-1.1,3.4-1.8
					c1.1,0.6,2.2,1.3,3.4,1.8c0,0.3,0,0.6-0.1,0.9c-2.5,32.5-3.5,65.5-2.8,98.1h3c-0.7-32.5,0.3-65.5,2.8-97.9l0,0
					c1.6,0.4,3.3,0.6,5,0.2c2.6-0.5,5-2.8,5.8-5.6C677.6,380.9,677.1,378.9,675.6,377.5z M649.3,385.8c-1.5-0.3-3-1.8-3.5-3.5
					c-0.2-0.7-0.3-1.8,0.6-2.5c0.5-0.5,1.2-0.6,1.7-0.6c0.1,0,0.2,0,0.4,0c1.2,0.1,2.5,0.8,3.3,1.9c0.9,1.2,1.4,2.7,1.6,4.4
					C652,385.9,650.7,386,649.3,385.8z M674.2,382.3c-0.5,1.7-1.9,3.2-3.5,3.5c-1.3,0.3-2.7,0.1-4-0.3c0.3-1.7,0.7-3.2,1.6-4.4
					c0.7-1,2-1.7,3.3-1.9c0.6-0.1,1.4,0,2.1,0.6C674.4,380.5,674.3,381.6,674.2,382.3z"/>
			</g>
			<path style="fill:none;stroke:#FFFFFF;stroke-width:4;stroke-linecap:round;stroke-miterlimit:10;" d="M636,292
				c-22,8-58,37-55,84"/>
		</g>
	</g>
</g>
</svg>
